<svg width="56" height="56" viewBox="0 0 56 56" fill="none" xmlns="http://www.w3.org/2000/svg">
    <path fill-rule="evenodd" clip-rule="evenodd" d="M29.7643 17.069L36.6297 10.2036C37.963 8.87028 38.6297 8.20361 39.4581 8.20361C40.2865 8.20361 40.9532 8.87028 42.2865 10.2036L45.7963 13.7134C47.1297 15.0468 47.7963 15.7134 47.7963 16.5419C47.7963 17.3703 47.1297 18.0369 45.7963 19.3703L38.9801 26.1865C35.1839 23.9593 32.0184 20.8173 29.7643 17.069ZM28.3101 18.5232L10.5228 36.3105C10.0978 36.7355 9.88523 36.9481 9.74549 37.2092C9.60576 37.4703 9.54681 37.765 9.42892 38.3544L7.52186 47.8898C7.45534 48.2224 7.42208 48.3887 7.51668 48.4833C7.61129 48.5779 7.7776 48.5446 8.11021 48.4781L17.6455 46.571C18.235 46.4531 18.5297 46.3942 18.7908 46.2545C19.0519 46.1147 19.2644 45.9022 19.6894 45.4772L19.6895 45.4772L19.6895 45.4771L37.5222 27.6445C33.7767 25.3532 30.6255 22.2243 28.3101 18.5232Z" fill="black"/>
</svg>
