<svg width="49" height="48" viewBox="0 0 49 48" fill="none" xmlns="http://www.w3.org/2000/svg">
    <g clip-path="url(#clip0_229_438)">
        <path d="M16.5001 48.0001C20.9162 48.0001 24.5002 44.4161 24.5002 40.0001V32H16.5001C12.0841 32 8.5 35.5841 8.5 40.0001C8.5 44.4161 12.0841 48.0001 16.5001 48.0001Z" fill="#0ACF83"/>
        <path d="M8.5 24.0001C8.5 19.5841 12.0841 16 16.5001 16H24.5002V31.9999H16.5001C12.0841 32.0001 8.5 28.4161 8.5 24.0001Z" fill="#A259FF"/>
        <path d="M8.5 8.00006C8.5 3.58406 12.0841 0 16.5001 0H24.5002V15.9999H16.5001C12.0841 15.9999 8.5 12.4161 8.5 8.00006Z" fill="#F24E1E"/>
        <path d="M24.4998 0H32.4999C36.9159 0 40.5 3.58406 40.5 8.00006C40.5 12.4161 36.9159 15.9999 32.4999 15.9999H24.4998V0Z" fill="#FF7262"/>
        <path d="M40.5 24.0001C40.5 28.4161 36.9159 32.0001 32.4999 32.0001C28.0838 32.0001 24.4998 28.4161 24.4998 24.0001C24.4998 19.5841 28.0838 16 32.4999 16C36.9159 16 40.5 19.5841 40.5 24.0001Z" fill="#1ABCFE"/>
    </g>
    <defs>
        <clipPath id="clip0_229_438">
            <rect width="48" height="48" fill="white" transform="translate(0.5)"/>
        </clipPath>
    </defs>
</svg>
