<svg width="49" height="48" viewBox="0 0 49 48" fill="none" xmlns="http://www.w3.org/2000/svg">
    <g clip-path="url(#clip0_229_429)">
        <path d="M24.4996 19.6362V28.9308H37.416C36.8488 31.9199 35.1468 34.4509 32.5941 36.1527L40.3831 42.1964C44.9213 38.0074 47.5395 31.8546 47.5395 24.5456C47.5395 22.8438 47.3868 21.2073 47.1031 19.6365L24.4996 19.6362Z" fill="#4285F4"/>
        <path d="M11.0494 28.5679L9.29263 29.9126L3.07434 34.7562C7.02342 42.5888 15.1174 47.9998 24.4991 47.9998C30.9789 47.9998 36.4116 45.8616 40.3826 42.1963L32.5936 36.1526C30.4554 37.5926 27.7281 38.4654 24.4991 38.4654C18.2591 38.4654 12.9575 34.2545 11.0592 28.5817L11.0494 28.5679Z" fill="#34A853"/>
        <path d="M3.07436 13.2437C1.43808 16.4726 0.5 20.1163 0.5 23.9999C0.5 27.8834 1.43808 31.5271 3.07436 34.7561C3.07436 34.7778 11.0599 28.5597 11.0599 28.5597C10.58 27.1197 10.2962 25.5926 10.2962 23.9996C10.2962 22.4067 10.58 20.8795 11.0599 19.4395L3.07436 13.2437Z" fill="#FBBC05"/>
        <path d="M24.4996 9.55636C28.0342 9.55636 31.176 10.7781 33.6851 13.1345L40.5577 6.2619C36.3904 2.37833 30.9797 0 24.4996 0C15.1179 0 7.02342 5.38908 3.07434 13.2437L11.0597 19.44C12.9578 13.7672 18.2596 9.55636 24.4996 9.55636Z" fill="#EA4335"/>
    </g>
    <defs>
        <clipPath id="clip0_229_429">
            <rect width="48" height="48" fill="white" transform="translate(0.5)"/>
        </clipPath>
    </defs>
</svg>
