<svg width="162" height="162" viewBox="0 0 162 162" fill="none" xmlns="http://www.w3.org/2000/svg">
    <path fill-rule="evenodd" clip-rule="evenodd" d="M13.5 81C13.5 70.3161 13.5 64.9741 14.2268 60.507C18.0949 36.7325 36.7325 18.0949 60.507 14.2268C64.9741 13.5 70.3161 13.5 81 13.5C91.6839 13.5 97.0259 13.5 101.493 14.2268C125.267 18.0949 143.905 36.7325 147.773 60.507C148.5 64.9741 148.5 70.3161 148.5 81C148.5 91.6839 148.5 97.0259 147.773 101.493C143.905 125.267 125.267 143.905 101.493 147.773C97.0259 148.5 91.6839 148.5 81 148.5C70.3161 148.5 64.9741 148.5 60.507 147.773C36.7325 143.905 18.0949 125.267 14.2268 101.493C13.5 97.0259 13.5 91.6839 13.5 81ZM55.7364 115.576C62.9841 110.014 71.8644 107 81 107C90.1356 107 99.0159 110.014 106.264 115.576C113.511 121.137 118.721 128.935 121.086 137.759C121.229 138.292 120.912 138.841 120.379 138.984C119.845 139.127 119.297 138.81 119.154 138.277C116.904 129.878 111.945 122.456 105.046 117.163C98.1476 111.869 89.6953 109 81 109C72.3047 109 63.8524 111.869 56.9539 117.163C50.0555 122.456 45.0964 129.878 42.8459 138.277C42.703 138.81 42.1547 139.127 41.6212 138.984C41.0877 138.841 40.7711 138.292 40.9141 137.759C43.2785 128.935 48.4887 121.137 55.7364 115.576ZM61.75 60.75C61.75 50.1185 70.3685 41.5 81 41.5C91.6315 41.5 100.25 50.1185 100.25 60.75C100.25 71.3815 91.6315 80 81 80C70.3685 80 61.75 71.3815 61.75 60.75ZM81 39.5C69.2639 39.5 59.75 49.014 59.75 60.75C59.75 72.4861 69.2639 82 81 82C92.7361 82 102.25 72.4861 102.25 60.75C102.25 49.014 92.7361 39.5 81 39.5Z" fill="white"/>
    <rect x="14" y="14" width="134" height="134" rx="55.5" stroke="white"/>
</svg>
